<mxfile host="app.diagrams.net" modified="2023-06-17T18:05:17.354Z" agent="Mozilla/5.0 (X11; Linux x86_64) AppleWebKit/537.36 (KHTML, like Gecko) Chrome/108.0.0.0 Safari/537.36" etag="0X6Rkfgls_SrcPygJ2Ai" version="21.4.0" type="github">
  <diagram name="第 1 页" id="HliLaq5X65rmixlDSG8i">
    <mxGraphModel dx="3354" dy="1851" grid="1" gridSize="10" guides="1" tooltips="1" connect="1" arrows="1" fold="1" page="1" pageScale="1" pageWidth="2339" pageHeight="3300" math="0" shadow="0">
      <root>
        <mxCell id="0" />
        <mxCell id="1" parent="0" />
        <mxCell id="7OQHH7-Huj5x8rUNPYlb-8" style="edgeStyle=orthogonalEdgeStyle;rounded=0;orthogonalLoop=1;jettySize=auto;html=1;" edge="1" parent="1" source="7OQHH7-Huj5x8rUNPYlb-1" target="7OQHH7-Huj5x8rUNPYlb-4">
          <mxGeometry relative="1" as="geometry" />
        </mxCell>
        <mxCell id="7OQHH7-Huj5x8rUNPYlb-1" value="controller" style="rounded=1;whiteSpace=wrap;html=1;fontSize=16;fillColor=#d5e8d4;strokeColor=#82b366;" vertex="1" parent="1">
          <mxGeometry x="450" y="190" width="260" height="80" as="geometry" />
        </mxCell>
        <mxCell id="7OQHH7-Huj5x8rUNPYlb-2" value="POD1" style="rounded=1;whiteSpace=wrap;html=1;fontSize=16;fillColor=#e1d5e7;strokeColor=#9673a6;" vertex="1" parent="1">
          <mxGeometry x="250" y="400" width="140" height="70" as="geometry" />
        </mxCell>
        <mxCell id="7OQHH7-Huj5x8rUNPYlb-3" value="POD2" style="rounded=1;whiteSpace=wrap;html=1;fontSize=16;fillColor=#e1d5e7;strokeColor=#9673a6;" vertex="1" parent="1">
          <mxGeometry x="520" y="400" width="140" height="70" as="geometry" />
        </mxCell>
        <mxCell id="7OQHH7-Huj5x8rUNPYlb-4" value="POD3" style="rounded=1;whiteSpace=wrap;html=1;fontSize=16;fillColor=#e1d5e7;strokeColor=#9673a6;" vertex="1" parent="1">
          <mxGeometry x="790" y="400" width="140" height="70" as="geometry" />
        </mxCell>
        <mxCell id="7OQHH7-Huj5x8rUNPYlb-6" style="edgeStyle=orthogonalEdgeStyle;rounded=0;orthogonalLoop=1;jettySize=auto;html=1;entryX=1;entryY=0.386;entryDx=0;entryDy=0;entryPerimeter=0;" edge="1" parent="1" source="7OQHH7-Huj5x8rUNPYlb-5" target="7OQHH7-Huj5x8rUNPYlb-4">
          <mxGeometry relative="1" as="geometry" />
        </mxCell>
        <mxCell id="7OQHH7-Huj5x8rUNPYlb-5" value="Label:&lt;br style=&quot;font-size: 17px;&quot;&gt;app:ngnix" style="rounded=1;whiteSpace=wrap;html=1;fillColor=#dae8fc;strokeColor=#6c8ebf;fontSize=17;align=left;" vertex="1" parent="1">
          <mxGeometry x="1010" y="380" width="120" height="60" as="geometry" />
        </mxCell>
        <mxCell id="7OQHH7-Huj5x8rUNPYlb-7" value="selector:&lt;br style=&quot;font-size: 17px;&quot;&gt;app:ngnix" style="rounded=1;whiteSpace=wrap;html=1;fillColor=#dae8fc;strokeColor=#6c8ebf;fontSize=17;align=left;" vertex="1" parent="1">
          <mxGeometry x="810" y="200" width="120" height="60" as="geometry" />
        </mxCell>
      </root>
    </mxGraphModel>
  </diagram>
</mxfile>
